HIERARCHY
ROOT pelvis
{
  OFFSET 0 100 0
  CHANNELS 6 Xposition Yposition Zposition Zrotation Xrotation Yrotation
  JOINT pelvis_right_femur
  {
    OFFSET -10.78128 -3.44521 -0.5502486
    CHANNELS 3 Zrotation Xrotation Yrotation
    JOINT right_femur_tibia
    {
      OFFSET -0.8047443 -44.0398 -0.1307829
      CHANNELS 3 Zrotation Xrotation Yrotation
      JOINT right_tibia_foot
      {
        OFFSET 3.006224 -47.83518 -5
        CHANNELS 3 Zrotation Xrotation Yrotation
        End Site
        {
          OFFSET 0 -5 15
        }
      }
    }
  }
  JOINT pelvis_left_femur
  {
    OFFSET 10.78128 -3.44521 -0.5502486
    CHANNELS 3 Zrotation Xrotation Yrotation
    JOINT left_femur_tibia
    {
      OFFSET 0.8047443 -44.0398 -0.1307829
      CHANNELS 3 Zrotation Xrotation Yrotation
      JOINT left_tibia_foot
      {
        OFFSET -4.370144 -48.10324 -4.275266
        CHANNELS 3 Zrotation Xrotation Yrotation
        End Site
        {
          OFFSET 0 -5 15
        }
      }
    }
  }
  JOINT pelvis_spine1
  {
    OFFSET 0 6.468898 -3.129235
    CHANNELS 3 Zrotation Xrotation Yrotation
    JOINT spine1
    {
      OFFSET 0 23.15396 4.99043
      CHANNELS 3 Zrotation Xrotation Yrotation
      JOINT spine2
      {
        OFFSET 0 20.79997 -5.064912
        CHANNELS 3 Zrotation Xrotation Yrotation
        JOINT neck
        {
          OFFSET 0 14.38658 9.616178
          CHANNELS 3 Zrotation Xrotation Yrotation
          End Site
          {
            OFFSET 0 20 0
          }
        }
      }
      JOINT right_manubrium
      {
        OFFSET -5.722621 16.35077 3.967754
        CHANNELS 3 Zrotation Xrotation Yrotation
        JOINT right_clavicle
        {
          OFFSET -13.16364 1.694482 -4.693211
          CHANNELS 3 Zrotation Xrotation Yrotation
          JOINT right_humerus
          {
            OFFSET -28.5034 -0.3100689 -2.792744
            CHANNELS 3 Zrotation Xrotation Yrotation
            JOINT right_radius
            {
              OFFSET -25.15693 0.02248979 -1.271978
              CHANNELS 3 Zrotation Xrotation Yrotation
              End Site
              {
                OFFSET -15 0 0
              }
            }
          }
        }
      }
      JOINT left_manubrium
      {
        OFFSET 5.722621 16.35077 3.967754
        CHANNELS 3 Zrotation Xrotation Yrotation
        JOINT left_clavicle
        {
          OFFSET 13.16364 1.694482 -4.693211
          CHANNELS 3 Zrotation Xrotation Yrotation
          JOINT left_humerus
          {
            OFFSET 29.39168 -1.063119 -2.237045
            CHANNELS 3 Zrotation Xrotation Yrotation
            JOINT left_radius
            {
              OFFSET 24.59957 -0.9528479 0.9047498
              CHANNELS 3 Zrotation Xrotation Yrotation
              End Site
              {
                OFFSET 15 -0 -0
              }
            }
          }
        }
      }
    }
  }
}
MOTION
Frames: 21
Frame Time: 0.0416666666667
-1742.671 146.0026 960.7387 -2.436356 7.927878 -158.3456 5.423502 14.90835 0.1965184 -0 15.59334 -0 -11.98741 -12.23388 -1.712199 4.457832 -19.07271 -1.780608 -0 9.470193 -0 3.367576 -0.3646252 14.77588 0.3349584 -4.045992 8.041756 0.8925059 16.11987 -6.731653 0.1814848 19.26054 2.468969 1.762707 -17.57725 2.663218 -0.5083335 -31.17358 13.39454 87.25383 18.62132 -10.0653 -0 0 28.63633 -22.2945 14.51885 12.5549 2.758697 -24.104 -8.151308 -95.08503 8.206259 37.02387 0 0 -3.889259 8.894079 13.56959 0.4133696
-1745.909 145.9174 955.7394 -2.387686 7.942586 -158.6981 5.423502 14.90835 0.1965184 -0 15.59334 -0 -11.98741 -12.23388 -1.712199 4.457832 -19.07271 -1.780608 -0 9.470193 -0 3.367576 -0.3646252 14.77588 0.3349584 -4.045992 8.041756 0.8925059 16.11987 -6.731653 0.1814848 19.26054 2.468969 1.762707 -17.57725 2.663218 -0.5083335 -31.17358 13.39454 87.25383 18.62132 -10.0653 -0 0 28.63633 -22.2945 14.51885 12.5549 2.758697 -24.104 -8.151308 -95.08503 8.206259 37.02387 0 0 -3.889259 8.894079 13.56959 0.4133696
-1749.117 145.8322 950.7205 -2.338925 7.956997 -159.0507 5.423502 14.90835 0.1965184 -0 15.59334 -0 -11.98741 -12.23388 -1.712199 4.457832 -19.07271 -1.780608 -0 9.470193 -0 3.367576 -0.3646252 14.77588 0.3349584 -4.045992 8.041756 0.8925059 16.11987 -6.731653 0.1814848 19.26054 2.468969 1.762707 -17.57725 2.663218 -0.5083335 -31.17358 13.39454 87.25383 18.62132 -10.0653 -0 0 28.63633 -22.2945 14.51885 12.5549 2.758697 -24.104 -8.151308 -95.08503 8.206259 37.02387 0 0 -3.889259 8.894079 13.56959 0.4133696
-1752.294 145.7471 945.682 -2.290073 7.97111 -159.4033 5.423502 14.90835 0.1965184 -0 15.59334 -0 -11.98741 -12.23388 -1.712199 4.457832 -19.07271 -1.780608 -0 9.470193 -0 3.367576 -0.3646252 14.77588 0.3349584 -4.045992 8.041756 0.8925059 16.11987 -6.731653 0.1814848 19.26054 2.468969 1.762707 -17.57725 2.663218 -0.5083335 -31.17358 13.39454 87.25383 18.62132 -10.0653 -0 0 28.63633 -22.2945 14.51885 12.5549 2.758697 -24.104 -8.151308 -95.08503 8.206259 37.02387 0 0 -3.889259 8.894079 13.56959 0.4133696
-1755.44 145.6619 940.6243 -2.241132 7.984925 -159.7559 5.423502 14.90835 0.1965184 -0 15.59334 -0 -11.98741 -12.23388 -1.712199 4.457832 -19.07271 -1.780608 -0 9.470193 -0 3.367576 -0.3646252 14.77588 0.3349584 -4.045992 8.041756 0.8925059 16.11987 -6.731653 0.1814848 19.26054 2.468969 1.762707 -17.57725 2.663218 -0.5083335 -31.17358 13.39454 87.25383 18.62132 -10.0653 -0 0 28.63633 -22.2945 14.51885 12.5549 2.758697 -24.104 -8.151308 -95.08503 8.206259 37.02387 0 0 -3.889259 8.894079 13.56959 0.4133697
-1758.556 145.5768 935.5475 -2.192105 7.998442 -160.1085 5.423502 14.90835 0.1965184 -0 15.59334 -0 -11.98741 -12.23388 -1.712199 4.457832 -19.07271 -1.780608 -0 9.470193 -0 3.367576 -0.3646252 14.77588 0.3349584 -4.045992 8.041756 0.8925059 16.11987 -6.731653 0.1814848 19.26054 2.468969 1.762707 -17.57725 2.663218 -0.5083335 -31.17358 13.39454 87.25383 18.62132 -10.0653 -0 0 28.63633 -22.2945 14.51885 12.5549 2.758697 -24.104 -8.151308 -95.08503 8.206259 37.02387 0 0 -3.889259 8.894079 13.56959 0.4133697
-1761.64 145.4916 930.4518 -2.142994 8.01166 -160.4612 5.423502 14.90835 0.1965184 -0 15.59334 -0 -11.98741 -12.23388 -1.712199 4.457832 -19.07271 -1.780608 -0 9.470193 -0 3.367576 -0.3646252 14.77588 0.3349584 -4.045992 8.041756 0.8925059 16.11987 -6.731653 0.1814848 19.26054 2.468969 1.762707 -17.57725 2.663218 -0.5083335 -31.17358 13.39454 87.25383 18.62132 -10.0653 -0 0 28.63633 -22.2945 14.51885 12.5549 2.758697 -24.104 -8.151308 -95.08503 8.206259 37.02387 0 0 -3.889259 8.894079 13.56959 0.4133697
-1764.693 145.4065 925.3373 -2.093799 8.024578 -160.8139 5.423502 14.90835 0.1965184 -0 15.59334 -0 -11.98741 -12.23388 -1.712199 4.457832 -19.07271 -1.780608 -0 9.470193 -0 3.367576 -0.3646252 14.77588 0.3349584 -4.045992 8.041756 0.8925059 16.11987 -6.731653 0.1814848 19.26054 2.468969 1.762707 -17.57725 2.663218 -0.5083335 -31.17358 13.39454 87.25383 18.62132 -10.0653 -0 0 28.63633 -22.2945 14.51885 12.5549 2.758697 -24.104 -8.151308 -95.08503 8.206259 37.02387 0 0 -3.889259 8.894079 13.56959 0.4133697
-1767.716 145.3213 920.2044 -2.044524 8.037196 -161.1666 5.423502 14.90835 0.1965184 -0 15.59334 -0 -11.98741 -12.23388 -1.712199 4.457832 -19.07271 -1.780608 -0 9.470193 -0 3.367576 -0.3646252 14.77588 0.3349584 -4.045992 8.041756 0.8925059 16.11987 -6.731653 0.1814848 19.26054 2.468969 1.762707 -17.57725 2.663218 -0.5083335 -31.17358 13.39454 87.25383 18.62132 -10.0653 -0 0 28.63633 -22.2945 14.51885 12.5549 2.758697 -24.104 -8.151308 -95.08503 8.206259 37.02387 0 0 -3.889259 8.894079 13.56959 0.4133697
-1770.706 145.2362 915.0531 -1.99517 8.049514 -161.5193 5.423502 14.90835 0.1965184 -0 15.59334 -0 -11.98741 -12.23388 -1.712199 4.457832 -19.07271 -1.780608 -0 9.470193 -0 3.367576 -0.3646252 14.77588 0.3349584 -4.045992 8.041756 0.8925059 16.11987 -6.731653 0.1814848 19.26054 2.468969 1.762707 -17.57725 2.663218 -0.5083335 -31.17358 13.39454 87.25383 18.62132 -10.0653 -0 0 28.63633 -22.2945 14.51885 12.5549 2.758697 -24.104 -8.151308 -95.08503 8.206259 37.02387 0 0 -3.889259 8.894079 13.56959 0.4133697
-1773.665 145.151 909.8836 -1.945738 8.06153 -161.872 5.423502 14.90835 0.1965184 -0 15.59334 -0 -11.98741 -12.23388 -1.712199 4.457832 -19.07271 -1.780608 -0 9.470193 -0 3.367576 -0.3646252 14.77588 0.3349584 -4.045992 8.041756 0.8925059 16.11987 -6.731653 0.1814848 19.26054 2.468969 1.762707 -17.57725 2.663218 -0.5083335 -31.17358 13.39454 87.25383 18.62132 -10.0653 -0 0 28.63633 -22.2945 14.51885 12.5549 2.758697 -24.104 -8.151308 -95.08503 8.206259 37.02387 0 0 -3.889259 8.894079 13.56959 0.4133697
-1776.593 145.0659 904.6962 -1.896231 8.073245 -162.2248 5.423502 14.90835 0.1965184 -0 15.59334 -0 -11.98741 -12.23388 -1.712199 4.457832 -19.07271 -1.780608 -0 9.470193 -0 3.367576 -0.3646252 14.77588 0.3349584 -4.045992 8.041756 0.8925059 16.11987 -6.731653 0.1814848 19.26054 2.468969 1.762707 -17.57725 2.663218 -0.5083335 -31.17358 13.39454 87.25383 18.62132 -10.0653 -0 0 28.63633 -22.2945 14.51885 12.5549 2.758697 -24.104 -8.151308 -95.08503 8.206259 37.02387 0 0 -3.889259 8.894079 13.56959 0.4133697
-1779.489 144.9807 899.491 -1.846651 8.084658 -162.5776 5.423502 14.90835 0.1965184 -0 15.59334 -0 -11.98741 -12.23388 -1.712199 4.457832 -19.07271 -1.780608 -0 9.470193 -0 3.367576 -0.3646252 14.77588 0.3349584 -4.045992 8.041756 0.8925059 16.11987 -6.731653 0.1814848 19.26054 2.468969 1.762707 -17.57725 2.663218 -0.5083335 -31.17358 13.39454 87.25383 18.62132 -10.0653 -0 0 28.63633 -22.2945 14.51885 12.5549 2.758697 -24.104 -8.151308 -95.08503 8.206259 37.02387 0 0 -3.889259 8.894079 13.56959 0.4133697
-1782.353 144.8956 894.2683 -1.797 8.095768 -162.9304 5.423502 14.90835 0.1965184 -0 15.59334 -0 -11.98741 -12.23388 -1.712199 4.457832 -19.07271 -1.780608 -0 9.470193 -0 3.367576 -0.3646252 14.77588 0.3349584 -4.045992 8.041756 0.8925059 16.11987 -6.731653 0.1814848 19.26054 2.468969 1.762707 -17.57725 2.663218 -0.5083335 -31.17358 13.39454 87.25383 18.62132 -10.0653 -0 0 28.63633 -22.2945 14.51885 12.5549 2.758697 -24.104 -8.151308 -95.08503 8.206259 37.02387 0 0 -3.889259 8.894079 13.56959 0.4133697
-1785.185 144.8104 889.0282 -1.747279 8.106575 -163.2832 5.423502 14.90835 0.1965184 -0 15.59334 -0 -11.98741 -12.23388 -1.712199 4.457832 -19.07271 -1.780608 -0 9.470193 -0 3.367576 -0.3646252 14.77588 0.3349584 -4.045992 8.041756 0.8925059 16.11987 -6.731653 0.1814848 19.26054 2.468969 1.762707 -17.57725 2.663218 -0.5083335 -31.17358 13.39454 87.25383 18.62132 -10.0653 -0 0 28.63633 -22.2945 14.51885 12.5549 2.758697 -24.104 -8.151308 -95.08503 8.206259 37.02387 0 0 -3.889259 8.894079 13.56959 0.4133697
-1787.986 144.7253 883.7709 -1.69749 8.117079 -163.6361 5.423502 14.90835 0.1965184 -0 15.59334 -0 -11.98741 -12.23388 -1.712199 4.457832 -19.07271 -1.780608 -0 9.470193 -0 3.367576 -0.3646252 14.77588 0.3349584 -4.045992 8.041756 0.8925059 16.11987 -6.731653 0.1814848 19.26054 2.468969 1.762707 -17.57725 2.663218 -0.5083335 -31.17358 13.39454 87.25383 18.62132 -10.0653 -0 0 28.63633 -22.2945 14.51885 12.5549 2.758697 -24.104 -8.151308 -95.08503 8.206259 37.02387 0 0 -3.889259 8.894079 13.56959 0.4133697
-1790.754 144.6401 878.4967 -1.647636 8.12728 -163.9889 5.423502 14.90835 0.1965184 -0 15.59334 -0 -11.98741 -12.23388 -1.712199 4.457832 -19.07271 -1.780608 -0 9.470193 -0 3.367576 -0.3646252 14.77588 0.3349584 -4.045992 8.041756 0.8925059 16.11987 -6.731653 0.1814848 19.26054 2.468969 1.762707 -17.57725 2.663218 -0.5083335 -31.17358 13.39454 87.25383 18.62132 -10.0653 -0 0 28.63633 -22.2945 14.51885 12.5549 2.758697 -24.104 -8.151308 -95.08503 8.206259 37.02387 0 0 -3.889259 8.894079 13.56959 0.4133697
-1793.489 144.555 873.2056 -1.597718 8.137176 -164.3418 5.423502 14.90835 0.1965184 -0 15.59334 -0 -11.98741 -12.23388 -1.712199 4.457832 -19.07271 -1.780608 -0 9.470193 -0 3.367576 -0.3646252 14.77588 0.3349584 -4.045992 8.041756 0.8925059 16.11987 -6.731653 0.1814848 19.26054 2.468969 1.762707 -17.57725 2.663218 -0.5083335 -31.17358 13.39454 87.25383 18.62132 -10.0653 -0 0 28.63633 -22.2945 14.51885 12.5549 2.758697 -24.104 -8.151308 -95.08503 8.206259 37.02387 0 0 -3.889259 8.894079 13.56959 0.4133697
-1796.193 144.4698 867.898 -1.547738 8.146767 -164.6947 5.423502 14.90835 0.1965184 -0 15.59334 -0 -11.98741 -12.23388 -1.712199 4.457832 -19.07271 -1.780608 -0 9.470193 -0 3.367576 -0.3646252 14.77588 0.3349584 -4.045992 8.041756 0.8925059 16.11987 -6.731653 0.1814848 19.26054 2.468969 1.762707 -17.57725 2.663218 -0.5083335 -31.17358 13.39454 87.25383 18.62132 -10.0653 -0 0 28.63633 -22.2945 14.51885 12.5549 2.758697 -24.104 -8.151308 -95.08503 8.206259 37.02387 0 0 -3.889259 8.894079 13.56959 0.4133697
-1798.864 144.3846 862.5739 -1.497698 8.156054 -165.0476 5.423502 14.90835 0.1965184 -0 15.59334 -0 -11.98741 -12.23388 -1.712199 4.457832 -19.07271 -1.780608 -0 9.470193 -0 3.367576 -0.3646252 14.77588 0.3349584 -4.045992 8.041756 0.8925059 16.11987 -6.731653 0.1814848 19.26054 2.468969 1.762707 -17.57725 2.663218 -0.5083335 -31.17358 13.39454 87.25383 18.62132 -10.0653 -0 0 28.63633 -22.2945 14.51885 12.5549 2.758697 -24.104 -8.151308 -95.08503 8.206259 37.02387 0 0 -3.889259 8.894079 13.56959 0.4133697
-1801.503 144.2995 857.2337 -1.4476 8.165035 -165.4006 5.423502 14.90835 0.1965184 -0 15.59334 -0 -11.98741 -12.23388 -1.712199 4.457832 -19.07271 -1.780608 -0 9.470193 -0 3.367576 -0.3646252 14.77588 0.3349584 -4.045992 8.041756 0.8925059 16.11987 -6.731653 0.1814848 19.26054 2.468969 1.762707 -17.57725 2.663218 -0.5083335 -31.17358 13.39454 87.25383 18.62132 -10.0653 -0 0 28.63633 -22.2945 14.51885 12.5549 2.758697 -24.104 -8.151308 -95.08503 8.206259 37.02387 0 0 -3.889259 8.894079 13.56959 0.4133697
